<svg preserveAspectRatio="none" overflow="visible" style="display: block;" width="157" height="220.6" viewBox="0 0 157 220.6" fill="none" xmlns="http://www.w3.org/2000/svg">
<g id="Group 51">
<path id="Vector" d="M76.7395 51.5733H71.4307L65.5911 64.0813L70.0016 67.112C76.3833 62.5694 83.9948 59.9038 92.1797 59.9038C92.8987 59.9038 93.5998 59.9799 94.3099 60.0203C90.1615 54.8593 83.8447 51.5733 76.7395 51.5733Z" fill="black"></path>
<g id="Group">
<path id="Vector_2" d="M54.3886 157.278H32.8914V174.611H54.3886V157.278Z" fill="black"></path>
<path id="Vector_3" d="M32.8916 177.994L32.8893 209.96C32.9633 215.802 37.7591 220.6 43.6704 220.6C49.5907 220.6 54.3842 215.8 54.3842 209.887L54.3887 177.994H32.8916Z" fill="black"></path>
</g>
<path id="Vector_4" d="M30.4095 75.1109L46.4455 64.0834L40.6059 51.5754H36.2671C26.2118 51.5754 17.7446 58.152 14.7677 67.3314L30.4095 75.1109Z" fill="black"></path>
<path id="Vector_5" d="M28.416 93.3197V77.8952L13.9592 70.7049C13.7508 71.966 13.6165 73.254 13.6165 74.58V93.3197H28.416Z" fill="black"></path>
<path id="Vector_6" d="M13.6191 96.7022V121.409L2.60063 125.75C0.492804 126.581 -0.544307 128.965 0.286727 131.075C0.922883 132.69 2.47071 133.675 4.10814 133.675C4.60766 133.675 5.11613 133.584 5.61117 133.389L13.6214 130.235V132.143C13.6214 142.725 28.4187 142.725 28.4187 132.143V96.7022H13.6191Z" fill="black"></path>
<g id="Group_2">
<path id="Vector_7" d="M80.5652 157.278H59.1509V174.611H80.5652V157.278Z" fill="black"></path>
<path id="Vector_8" d="M59.1465 177.994L59.1331 209.887C59.1331 215.8 63.9289 220.6 69.8402 220.6C75.756 220.6 80.5473 215.8 80.5473 209.887L80.5608 177.994H59.1465Z" fill="black"></path>
</g>
<g id="Group_3">
<path id="Vector_9" d="M32.8421 110.628L51.6154 104.374C51.6131 104.238 51.5997 104.105 51.5997 103.969C51.5997 89.8972 57.7283 77.3757 67.2146 69.3028L61.3145 65.2484L67.6962 51.5733H44.3422L50.7239 65.2484L32.804 77.5661L32.8421 110.628Z" fill="black"></path>
<path id="Vector_10" d="M59.6815 130.223C59.3231 129.702 58.9624 129.184 58.6242 128.644C58.2837 128.098 57.9656 127.533 57.6476 126.969C57.4303 126.586 57.2063 126.207 57.0002 125.817C56.6306 125.116 56.2834 124.397 55.9497 123.671C55.8309 123.416 55.7077 123.161 55.5935 122.901C55.2217 122.052 54.8722 121.19 54.5497 120.312C54.5004 120.179 54.4489 120.047 54.4018 119.915C54.0479 118.927 53.7209 117.924 53.4319 116.902C53.4297 116.891 53.4252 116.882 53.423 116.871C53.3625 116.654 53.3311 116.425 53.2729 116.208L32.8577 125.441L32.8644 131.229H32.8957L32.8935 153.893H54.3906L54.3929 137.212H59.1618L59.1551 153.893H80.5716L80.5761 146.174C72.1111 143.426 64.8312 137.734 59.6815 130.223Z" fill="black"></path>
</g>
<path id="Vector_11" d="M157 69.4054L120.706 79.9445C114.107 70.5433 103.809 64.4169 92.1771 64.4169C72.6288 64.4169 56.7002 81.5663 56.1582 102.86L121.512 81.0847C122.099 81.9919 122.811 83.1746 123.492 84.4514L57.4058 114.339C61.5767 131.126 75.5631 143.522 92.1771 143.522C112.07 143.522 128.254 125.779 128.254 103.971C128.254 97.2842 126.691 91.0123 124.005 85.4862L157 69.4054Z" fill="white"></path>
<path id="Vector_12" d="M78.0477 26.947C77.5751 16.4079 69.6343 7.83994 59.364 6.46459V0H53.8895V6.43771C43.4825 7.68987 35.3895 16.3116 34.9168 26.9493L34.9079 48.0902L78.0858 48.303L78.0477 26.947ZM58.3179 6.33244V18.7509H54.9378V6.32796C55.3634 6.28092 55.8831 6.2406 56.5708 6.2406C57.3122 6.2406 57.8677 6.2854 58.3179 6.33244ZM50.1062 43.5341H46.726V32.7508H50.1062V43.5341ZM58.3695 43.5341H54.9893V32.7508H58.3695V43.5341ZM66.5275 43.5341H63.1473V32.7508H66.5275V43.5341ZM71.3188 28.6897H41.9347V24.8392H71.3188V28.6897Z" fill="white"></path>
</g>
</svg>