<svg preserveAspectRatio="none" overflow="visible" style="display: block;" width="88.5152" height="91.0079" viewBox="0 0 88.5152 91.0079" fill="none" xmlns="http://www.w3.org/2000/svg">
<g id="girl">
<g id="Group 43">
<path id="Vector" d="M35.1528 28.6566L35.1779 28.6717C37.4093 30.0477 48.8881 34.762 61.7531 22.7046C66.9202 17.457 69.3679 9.46982 69.3679 9.46982C69.3679 9.46982 63.8713 11.9377 59.5821 10.2874C56.6765 9.1604 53.7836 5.68631 53.2402 4.99451C51.9044 3.49016 50.239 2.21222 48.2995 1.33174C40.7375 -2.09958 31.8044 1.33174 28.3706 8.96418C25.0223 16.4105 28.0738 24.9913 35.1528 28.6566Z" fill="white"></path>
<path id="Vector_2" d="M13.3379 91.0077L21.8709 56.9083L25.496 56.9812L18.5906 91.0077H69.9271L63.0217 56.9812L66.6442 56.9083L75.1772 91.0077H88.5151L77.8363 49.5249C76.5835 44.4458 72.5056 35.3669 61.4947 34.972H26.9324C15.9215 35.3669 11.9291 44.4458 10.6789 49.5249L0 91.0077H13.3379Z" fill="white"></path>
</g>
</g>
</svg>