<svg preserveAspectRatio="none" overflow="visible" style="display: block;" width="28" height="28" viewBox="0 0 28 28" fill="none" xmlns="http://www.w3.org/2000/svg">
<g id="Icon">
<path id="Vector" d="M14 11C15.6569 11 17 9.65685 17 8C17 6.34315 15.6569 5 14 5C12.3431 5 11 6.34315 11 8C11 9.65685 12.3431 11 14 11Z" stroke="#159845" stroke-width="1.5" stroke-linecap="round" stroke-linejoin="round"/>
<path id="Vector_2" d="M8 23C9.65685 23 11 21.6569 11 20C11 18.3431 9.65685 17 8 17C6.34315 17 5 18.3431 5 20C5 21.6569 6.34315 23 8 23Z" stroke="#159845" stroke-width="1.5" stroke-linecap="round" stroke-linejoin="round"/>
<path id="Vector_3" d="M20 23C21.6569 23 23 21.6569 23 20C23 18.3431 21.6569 17 20 17C18.3431 17 17 18.3431 17 20C17 21.6569 18.3431 23 20 23Z" stroke="#159845" stroke-width="1.5" stroke-linecap="round" stroke-linejoin="round"/>
<path id="Vector_4" d="M14 11V15M14 15L11.5 18.5M14 15L16.5 18.5" stroke="#159845" stroke-width="1.5" stroke-linecap="round" stroke-linejoin="round"/>
</g>
</svg>
