<svg preserveAspectRatio="none" overflow="visible" style="display: block;" width="32" height="32" viewBox="0 0 32 32" fill="none" xmlns="http://www.w3.org/2000/svg">
<g id="Icon">
<path id="Vector" d="M16 4H12C10.8954 4 10 4.89543 10 6V10C10 11.1046 10.8954 12 12 12H16C17.1046 12 18 11.1046 18 10V6C18 4.89543 17.1046 4 16 4Z" fill="#F24E1E"/>
<path id="Vector_2" d="M24 4H20C18.8954 4 18 4.89543 18 6V10C18 11.1046 18.8954 12 20 12H24C25.1046 12 26 11.1046 26 10V6C26 4.89543 25.1046 4 24 4Z" fill="#FF7262"/>
<path id="Vector_3" d="M16 12H12C10.8954 12 10 12.8954 10 14V18C10 19.1046 10.8954 20 12 20H16C17.1046 20 18 19.1046 18 18V14C18 12.8954 17.1046 12 16 12Z" fill="#A259FF"/>
<path id="Vector_4" d="M16 20H12C10.8954 20 10 20.8954 10 22V26C10 27.1046 10.8954 28 12 28H16C17.1046 28 18 27.1046 18 26V22C18 20.8954 17.1046 20 16 20Z" fill="#0ACF83"/>
<path id="Vector_5" d="M22 20C24.2091 20 26 18.2091 26 16C26 13.7909 24.2091 12 22 12C19.7909 12 18 13.7909 18 16C18 18.2091 19.7909 20 22 20Z" fill="#1ABCFE"/>
</g>
</svg>
